<svg width="130" height="42" viewBox="0 0 130 42" fill="none" xmlns="http://www.w3.org/2000/svg">
<path d="M67.0738 13.6782L61.949 26.1292H55.7416L50.707 13.6782H55.6513L59.1521 22.5202L62.743 13.6782H67.0738Z" fill="black"/>
<path d="M82.2331 13.6782V16.2586H74.2392V18.5323H80.3203V21.0045H74.2392V23.5488H82.2872V26.1292H70.8828V13.6782H82.2331Z" fill="black"/>
<path d="M94.7939 13.6782C96.1894 13.6782 97.248 14.0151 97.9698 14.6887C98.7037 15.3504 99.0706 16.3008 99.0706 17.5398C99.0706 18.5263 98.848 19.3323 98.4029 19.9579C97.9698 20.5714 97.3262 20.9984 96.4721 21.239L99.5217 26.1292H96.7067L93.8014 21.4556H89.5068V26.1292H86.9805V13.6782H94.7939ZM96.5262 17.3413C96.5262 16.8 96.3698 16.3729 96.0571 16.0602C95.7443 15.7353 95.209 15.5729 94.4511 15.5729H89.5068V19.5428H94.4511C95.1969 19.5428 95.7262 19.3864 96.039 19.0737C96.3638 18.7488 96.5262 18.3218 96.5262 17.7925V17.3413Z" fill="black"/>
<path d="M105.185 22.7368C105.294 23.1819 105.456 23.5488 105.673 23.8375C105.889 24.1262 106.172 24.3548 106.521 24.5232C106.87 24.6916 107.291 24.8119 107.784 24.8841C108.289 24.9443 108.879 24.9744 109.552 24.9744C110.96 24.9744 111.976 24.7939 112.602 24.433C113.239 24.0721 113.558 23.5127 113.558 22.7548C113.558 22.2375 113.414 21.8405 113.125 21.5639C112.848 21.2751 112.475 21.0586 112.006 20.9142C111.537 20.7699 111.002 20.6676 110.4 20.6075C109.811 20.5473 109.203 20.4932 108.578 20.4451C107.964 20.3849 107.357 20.3067 106.755 20.2105C106.166 20.1022 105.636 19.9338 105.167 19.7052C104.698 19.4646 104.319 19.1338 104.03 18.7128C103.754 18.2917 103.615 17.7383 103.615 17.0526C103.615 15.8256 104.109 14.9233 105.095 14.3459C106.094 13.7685 107.507 13.4797 109.336 13.4797C111.14 13.4797 112.518 13.7504 113.468 14.2918C114.418 14.8211 114.96 15.7053 115.092 16.9444H113.288C113.227 16.5353 113.095 16.1985 112.891 15.9338C112.686 15.6572 112.415 15.4406 112.079 15.2842C111.742 15.1158 111.339 15.0015 110.87 14.9414C110.412 14.8692 109.901 14.8331 109.336 14.8331C108.036 14.8331 107.044 14.9955 106.358 15.3203C105.685 15.6451 105.348 16.2165 105.348 17.0346C105.348 17.5158 105.486 17.8887 105.763 18.1534C106.052 18.418 106.43 18.6225 106.9 18.7669C107.369 18.8992 107.898 18.9895 108.488 19.0376C109.089 19.0857 109.697 19.1398 110.31 19.2C110.936 19.2601 111.543 19.3443 112.133 19.4526C112.734 19.5609 113.269 19.7353 113.739 19.9759C114.208 20.2165 114.581 20.5533 114.857 20.9864C115.146 21.4195 115.291 21.9849 115.291 22.6826C115.291 23.9458 114.833 24.8721 113.919 25.4616C113.005 26.039 111.555 26.3277 109.57 26.3277C108.572 26.3277 107.706 26.2616 106.972 26.1292C106.238 25.9969 105.618 25.7924 105.113 25.5157C104.62 25.227 104.229 24.8541 103.94 24.3969C103.664 23.9398 103.477 23.3864 103.381 22.7368H105.185Z" fill="black"/>
<path d="M129.926 13.6782V14.7429H121.499V19.2541H128.104V20.3188H121.499V25.0646H129.999V26.1292H120.164V13.6782H129.926Z" fill="black"/>
<path d="M41.9139 0H0V41.9139H41.9139V0Z" fill="#FF0032"/>
<path d="M27.9238 3.19531V5.15072H32.1364V12.8009L32.1372 12.9269H34.4956V5.15072H38.7081V3.19531H27.9238Z" fill="white"/>
<path d="M12.7524 3.22437L9.67142 9.62123L6.59044 3.22437H3.22656V12.8968H5.58488V5.97446L8.59642 11.8227H10.7465L13.7588 5.97446V12.8968H16.1171V3.22437H12.7524Z" fill="white"/>
<path d="M36.3443 35.4648C36.3003 35.822 36.1375 36.1541 35.8822 36.4077C35.617 36.6492 35.291 36.8136 34.9392 36.8834C34.4253 36.9853 33.902 37.0327 33.3781 37.0249C32.8203 37.0349 32.2646 36.9536 31.7331 36.784C31.2974 36.6425 30.9216 36.3591 30.6658 35.979C30.4086 35.5985 30.2817 35.049 30.2817 34.3503V33.3593C30.2817 32.6555 30.4113 32.106 30.6658 31.7254C30.9211 31.3461 31.2958 31.0631 31.7305 30.9213C32.2621 30.7518 32.8178 30.6704 33.3756 30.6804C33.8995 30.6725 34.4228 30.72 34.9367 30.8218C35.2884 30.8919 35.6143 31.0564 35.8797 31.2976C36.1349 31.5513 36.2976 31.8834 36.3417 32.2406H38.7017C38.6591 31.4966 38.3753 30.7867 37.8933 30.2183C37.418 29.6956 36.8028 29.3202 36.1206 29.1365C35.2258 28.9004 34.3025 28.7899 33.3773 28.8081C32.2466 28.8081 31.2659 28.971 30.4626 29.2917C29.668 29.5976 29.0023 30.1667 28.5767 30.9041C28.1609 31.6182 27.9423 32.5715 27.9277 33.7399V33.8471L28.0538 33.8522H27.9277V33.9594C27.9423 35.1279 28.1609 36.0811 28.5767 36.7952C29.0023 37.5326 29.668 38.1018 30.4626 38.4077C31.2667 38.7283 32.2483 38.8912 33.3773 38.8912C34.3025 38.9099 35.2259 38.7994 36.1206 38.5628C36.8031 38.3799 37.4185 38.0043 37.8933 37.481C38.3755 36.9127 38.6593 36.2028 38.7017 35.4587L36.3443 35.4648Z" fill="white"/>
<path d="M41.9139 0H0V41.9139H41.9139V0Z" fill="#FF0032"/>
<path d="M27.9238 3.19531V5.15072H32.1364V12.8009L32.1372 12.9269H34.4956V5.15072H38.7081V3.19531H27.9238Z" fill="white"/>
<path d="M12.7524 3.22437L9.67142 9.62123L6.59044 3.22437H3.22656V12.8968H5.58488V5.97446L8.59642 11.8227H10.7465L13.7588 5.97446V12.8968H16.1171V3.22437H12.7524Z" fill="white"/>
<path d="M36.3443 35.4648C36.3003 35.822 36.1375 36.1541 35.8822 36.4077C35.617 36.6491 35.2909 36.8136 34.9392 36.8835C34.4253 36.9853 33.902 37.0327 33.3781 37.0249C32.8203 37.0349 32.2646 36.9535 31.7331 36.784C31.2974 36.6425 30.9216 36.3591 30.6658 35.9791C30.4086 35.5985 30.2817 35.049 30.2817 34.3503V33.3593C30.2817 32.6555 30.4112 32.106 30.6658 31.7254C30.9211 31.3461 31.2958 31.0631 31.7305 30.9213C32.262 30.7517 32.8178 30.6703 33.3756 30.6804C33.8995 30.6726 34.4228 30.72 34.9367 30.8218C35.2884 30.8919 35.6143 31.0564 35.8797 31.2976C36.1349 31.5513 36.2976 31.8833 36.3417 32.2405H38.7017C38.6591 31.4965 38.3753 30.7867 37.8933 30.2183C37.418 29.6956 36.8028 29.3201 36.1206 29.1365C35.2258 28.9004 34.3025 28.7899 33.3773 28.8081C32.2466 28.8081 31.2659 28.971 30.4626 29.2916C29.668 29.5975 29.0023 30.1667 28.5767 30.9041C28.1609 31.6182 27.9423 32.5714 27.9277 33.7399V33.8471L28.0538 33.8522H27.9277V33.9593C27.9423 35.1278 28.1609 36.0811 28.5767 36.7952C29.0023 37.5326 29.668 38.1018 30.4626 38.4077C31.2667 38.7283 32.2483 38.8911 33.3773 38.8911C34.3025 38.9098 35.2259 38.7993 36.1206 38.5628C36.8031 38.3798 37.4185 38.0042 37.8933 37.4809C38.3755 36.9127 38.6593 36.2027 38.7017 35.4587L36.3443 35.4648Z" fill="white"/>
</svg>
