<svg width="157" height="157" viewBox="0 0 157 157" fill="none" xmlns="http://www.w3.org/2000/svg">
<g clip-path="url(#clip0_1002_2009)">
<path d="M156.667 0H0V156.667H156.667V0Z" fill="#FF0032"/>
<path d="M104.375 11.9429V19.247H120.122V47.8476L120.13 48.3115H128.944V19.247H144.682V11.9429H104.375Z" fill="white"/>
<path d="M47.6701 12.0525L36.1573 35.9637L24.6361 12.0525H12.0605V48.2102H20.8744V22.3339L32.1341 44.1871H40.172L51.4318 22.3339V48.2102H60.2456V12.0525H47.6701Z" fill="white"/>
<path d="M135.892 132.562C135.734 133.891 135.141 135.13 134.205 136.087C133.207 136.984 131.987 137.599 130.671 137.867C128.749 138.241 126.793 138.417 124.835 138.39C122.75 138.426 120.674 138.124 118.686 137.496C117.063 136.965 115.662 135.908 114.705 134.493C113.752 133.068 113.271 131.018 113.271 128.387V124.692C113.271 122.061 113.752 120.003 114.705 118.586C115.66 117.169 117.061 116.112 118.686 115.583C120.673 114.948 122.75 114.643 124.835 114.681C126.794 114.652 128.75 114.83 130.671 115.212C131.989 115.473 133.211 116.088 134.205 116.992C135.144 117.943 135.738 119.181 135.892 120.509H144.706C144.555 117.717 143.495 115.051 141.687 112.918C139.913 110.964 137.614 109.562 135.066 108.878C131.715 107.994 128.257 107.58 124.793 107.647C121.079 107.558 117.382 108.171 113.896 109.452C110.926 110.598 108.437 112.726 106.845 115.482C105.293 118.147 104.474 121.715 104.424 126.084V126.565H104.896H104.424V126.961C104.474 131.322 105.267 134.89 106.845 137.555C108.435 140.313 110.924 142.442 113.896 143.585C117.383 144.865 121.079 145.478 124.793 145.39C128.257 145.46 131.714 145.048 135.066 144.167C137.615 143.48 139.913 142.075 141.687 140.119C143.496 137.987 144.557 135.32 144.706 132.528L135.892 132.562Z" fill="white"/>
</g>
<defs>
<clipPath id="clip0_1002_2009">
<rect width="156.667" height="156.667" fill="white"/>
</clipPath>
</defs>
</svg>
