<svg width="157" height="20" viewBox="0 0 157 20" fill="none" xmlns="http://www.w3.org/2000/svg">
<path d="M17.9023 0.488586L12.5611 13.9659L7.35417 0.488586H0L7.48837 19.4668H16.7213L24.3439 0.488586H17.9023Z" fill="black"/>
<path d="M39.675 0.488586V19.4668H56.6379V15.5337H44.6673V11.6555H53.7124V7.88735H44.6673V4.42176H56.5574V0.488586H39.675Z" fill="black"/>
<path d="M73.2819 0.488586V19.4668H77.0395V12.3431H83.4274L87.7487 19.4668H91.9357L87.3997 12.0131C89.9227 11.2979 91.2647 9.3726 91.2647 6.37459C91.2647 2.60645 89.037 0.488586 84.9036 0.488586H73.2819ZM87.4803 6.75966C87.4803 8.35493 86.5945 9.42761 84.3937 9.42761H77.0395V3.37658H84.3937C86.6214 3.37658 87.4803 4.44926 87.4803 6.07204V6.75966Z" fill="black"/>
<path d="M107.36 14.2959C107.923 18.2566 110.607 19.7694 116.566 19.7694C122.471 19.7694 125.074 18.0641 125.074 14.2134C125.074 5.65947 110.285 11.4905 110.285 5.60446C110.285 3.12904 112.379 2.24889 116.217 2.24889C119.599 2.24889 121.773 2.96401 122.095 5.46694H124.779C124.376 1.69879 121.558 0.186035 116.217 0.186035C110.768 0.186035 107.709 1.89133 107.709 5.63197C107.709 14.0484 122.497 8.07988 122.497 14.3235C122.497 16.6338 120.726 17.7065 116.539 17.7065C112.54 17.7065 110.688 16.9914 110.044 14.2959H107.36Z" fill="black"/>
<path d="M142.039 0.488586V19.4668H156.667V17.844H144.025V10.6103H153.849V8.98754H144.025V2.11136H156.559V0.488586H142.039Z" fill="black"/>
</svg>
